<mxfile host="app.diagrams.net" modified="2022-08-25T08:33:29.326Z" agent="5.0 (Macintosh; Intel Mac OS X 10_15_7) AppleWebKit/537.36 (KHTML, like Gecko) Chrome/103.0.0.0 Safari/537.36" etag="X4Qft1KBAL5zzmZLsuc3" version="20.2.7" type="github">
  <diagram id="REJIoAJxf-06d9rq_6dk" name="第 1 页">
    <mxGraphModel dx="1174" dy="769" grid="0" gridSize="10" guides="1" tooltips="1" connect="1" arrows="1" fold="1" page="1" pageScale="1" pageWidth="1654" pageHeight="1169" math="0" shadow="0">
      <root>
        <mxCell id="0" />
        <mxCell id="1" parent="0" />
        <mxCell id="fJqqmS50FYr8kvpDgYE6-31" value="redisServer" style="swimlane;fontStyle=0;childLayout=stackLayout;horizontal=1;startSize=26;fillColor=none;horizontalStack=0;resizeParent=1;resizeParentMax=0;resizeLast=0;collapsible=1;marginBottom=0;rounded=0;strokeColor=#FFB570;align=center;fontFamily=Comic Sans MS;" parent="1" vertex="1">
          <mxGeometry x="27" y="345" width="140" height="208" as="geometry">
            <mxRectangle x="24" y="48" width="102" height="26" as="alternateBounds" />
          </mxGeometry>
        </mxCell>
        <mxCell id="fJqqmS50FYr8kvpDgYE6-32" value="redisDb *db" style="text;strokeColor=#FFB570;fillColor=none;align=center;verticalAlign=top;spacingLeft=4;spacingRight=4;overflow=hidden;rotatable=0;points=[[0,0.5],[1,0.5]];portConstraint=eastwest;rounded=0;fontFamily=Comic Sans MS;" parent="fJqqmS50FYr8kvpDgYE6-31" vertex="1">
          <mxGeometry y="26" width="140" height="26" as="geometry" />
        </mxCell>
        <mxCell id="fJqqmS50FYr8kvpDgYE6-33" value="+ field: type" style="text;strokeColor=#FFB570;fillColor=none;align=center;verticalAlign=top;spacingLeft=4;spacingRight=4;overflow=hidden;rotatable=0;points=[[0,0.5],[1,0.5]];portConstraint=eastwest;rounded=0;fontFamily=Comic Sans MS;" parent="fJqqmS50FYr8kvpDgYE6-31" vertex="1">
          <mxGeometry y="52" width="140" height="26" as="geometry" />
        </mxCell>
        <mxCell id="fJqqmS50FYr8kvpDgYE6-34" value="+ field: type" style="text;strokeColor=#FFB570;fillColor=none;align=center;verticalAlign=top;spacingLeft=4;spacingRight=4;overflow=hidden;rotatable=0;points=[[0,0.5],[1,0.5]];portConstraint=eastwest;rounded=0;fontFamily=Comic Sans MS;" parent="fJqqmS50FYr8kvpDgYE6-31" vertex="1">
          <mxGeometry y="78" width="140" height="26" as="geometry" />
        </mxCell>
        <mxCell id="fJqqmS50FYr8kvpDgYE6-35" value="+ item: attribute" style="text;strokeColor=#FFB570;fillColor=none;align=center;verticalAlign=top;spacingLeft=4;spacingRight=4;overflow=hidden;rotatable=0;points=[[0,0.5],[1,0.5]];portConstraint=eastwest;rounded=0;fontFamily=Comic Sans MS;" parent="fJqqmS50FYr8kvpDgYE6-31" vertex="1">
          <mxGeometry y="104" width="140" height="26" as="geometry" />
        </mxCell>
        <mxCell id="fJqqmS50FYr8kvpDgYE6-36" value="+ item: attribute" style="text;strokeColor=#FFB570;fillColor=none;align=center;verticalAlign=top;spacingLeft=4;spacingRight=4;overflow=hidden;rotatable=0;points=[[0,0.5],[1,0.5]];portConstraint=eastwest;rounded=0;fontFamily=Comic Sans MS;" parent="fJqqmS50FYr8kvpDgYE6-31" vertex="1">
          <mxGeometry y="130" width="140" height="26" as="geometry" />
        </mxCell>
        <mxCell id="fJqqmS50FYr8kvpDgYE6-37" value="+ item: attribute" style="text;strokeColor=#FFB570;fillColor=none;align=center;verticalAlign=top;spacingLeft=4;spacingRight=4;overflow=hidden;rotatable=0;points=[[0,0.5],[1,0.5]];portConstraint=eastwest;rounded=0;fontFamily=Comic Sans MS;" parent="fJqqmS50FYr8kvpDgYE6-31" vertex="1">
          <mxGeometry y="156" width="140" height="26" as="geometry" />
        </mxCell>
        <mxCell id="fJqqmS50FYr8kvpDgYE6-39" value="+ item: attribute" style="text;strokeColor=#FFB570;fillColor=none;align=center;verticalAlign=top;spacingLeft=4;spacingRight=4;overflow=hidden;rotatable=0;points=[[0,0.5],[1,0.5]];portConstraint=eastwest;rounded=0;fontFamily=Comic Sans MS;" parent="fJqqmS50FYr8kvpDgYE6-31" vertex="1">
          <mxGeometry y="182" width="140" height="26" as="geometry" />
        </mxCell>
        <mxCell id="fJqqmS50FYr8kvpDgYE6-42" value="redisDb" style="swimlane;fontStyle=0;childLayout=stackLayout;horizontal=1;startSize=26;fillColor=none;horizontalStack=0;resizeParent=1;resizeParentMax=0;resizeLast=0;collapsible=1;marginBottom=0;rounded=0;strokeColor=#FFB570;align=center;fontFamily=Comic Sans MS;" parent="1" vertex="1">
          <mxGeometry x="204" y="534" width="140" height="208" as="geometry" />
        </mxCell>
        <mxCell id="fJqqmS50FYr8kvpDgYE6-43" value="dict *dict" style="text;strokeColor=#FFB570;fillColor=none;align=center;verticalAlign=top;spacingLeft=4;spacingRight=4;overflow=hidden;rotatable=0;points=[[0,0.5],[1,0.5]];portConstraint=eastwest;rounded=0;fontFamily=Comic Sans MS;" parent="fJqqmS50FYr8kvpDgYE6-42" vertex="1">
          <mxGeometry y="26" width="140" height="26" as="geometry" />
        </mxCell>
        <mxCell id="fJqqmS50FYr8kvpDgYE6-44" value="dict *expires" style="text;strokeColor=#FFB570;fillColor=none;align=center;verticalAlign=top;spacingLeft=4;spacingRight=4;overflow=hidden;rotatable=0;points=[[0,0.5],[1,0.5]];portConstraint=eastwest;rounded=0;fontFamily=Comic Sans MS;" parent="fJqqmS50FYr8kvpDgYE6-42" vertex="1">
          <mxGeometry y="52" width="140" height="26" as="geometry" />
        </mxCell>
        <mxCell id="fJqqmS50FYr8kvpDgYE6-45" value="dict *blocking_keys" style="text;strokeColor=#FFB570;fillColor=none;align=center;verticalAlign=top;spacingLeft=4;spacingRight=4;overflow=hidden;rotatable=0;points=[[0,0.5],[1,0.5]];portConstraint=eastwest;rounded=0;fontFamily=Comic Sans MS;" parent="fJqqmS50FYr8kvpDgYE6-42" vertex="1">
          <mxGeometry y="78" width="140" height="26" as="geometry" />
        </mxCell>
        <mxCell id="fJqqmS50FYr8kvpDgYE6-47" value="dict *ready_keys" style="text;strokeColor=#FFB570;fillColor=none;align=center;verticalAlign=top;spacingLeft=4;spacingRight=4;overflow=hidden;rotatable=0;points=[[0,0.5],[1,0.5]];portConstraint=eastwest;rounded=0;fontFamily=Comic Sans MS;" parent="fJqqmS50FYr8kvpDgYE6-42" vertex="1">
          <mxGeometry y="104" width="140" height="26" as="geometry" />
        </mxCell>
        <mxCell id="fJqqmS50FYr8kvpDgYE6-48" value="dict *watched_keys" style="text;strokeColor=#FFB570;fillColor=none;align=center;verticalAlign=top;spacingLeft=4;spacingRight=4;overflow=hidden;rotatable=0;points=[[0,0.5],[1,0.5]];portConstraint=eastwest;rounded=0;fontFamily=Comic Sans MS;" parent="fJqqmS50FYr8kvpDgYE6-42" vertex="1">
          <mxGeometry y="130" width="140" height="26" as="geometry" />
        </mxCell>
        <mxCell id="fJqqmS50FYr8kvpDgYE6-49" value="int id" style="text;strokeColor=#FFB570;fillColor=none;align=center;verticalAlign=top;spacingLeft=4;spacingRight=4;overflow=hidden;rotatable=0;points=[[0,0.5],[1,0.5]];portConstraint=eastwest;rounded=0;fontFamily=Comic Sans MS;" parent="fJqqmS50FYr8kvpDgYE6-42" vertex="1">
          <mxGeometry y="156" width="140" height="26" as="geometry" />
        </mxCell>
        <mxCell id="fJqqmS50FYr8kvpDgYE6-50" value="long long avg_ttl" style="text;strokeColor=#FFB570;fillColor=none;align=center;verticalAlign=top;spacingLeft=4;spacingRight=4;overflow=hidden;rotatable=0;points=[[0,0.5],[1,0.5]];portConstraint=eastwest;rounded=0;fontFamily=Comic Sans MS;" parent="fJqqmS50FYr8kvpDgYE6-42" vertex="1">
          <mxGeometry y="182" width="140" height="26" as="geometry" />
        </mxCell>
        <mxCell id="RfdrG1ktTRq8gSZfN96u-4" style="edgeStyle=orthogonalEdgeStyle;orthogonalLoop=1;jettySize=auto;html=1;entryX=0.5;entryY=0;entryDx=0;entryDy=0;fontFamily=Comic Sans MS;curved=1;align=center;strokeColor=#FFB570;" parent="1" source="fJqqmS50FYr8kvpDgYE6-32" target="Eub6isoXANDsjV6QHxqc-10" edge="1">
          <mxGeometry relative="1" as="geometry" />
        </mxCell>
        <mxCell id="RfdrG1ktTRq8gSZfN96u-5" value="dict" style="swimlane;fontStyle=0;childLayout=stackLayout;horizontal=1;startSize=26;fillColor=none;horizontalStack=0;resizeParent=1;resizeParentMax=0;resizeLast=0;collapsible=1;marginBottom=0;rounded=0;labelBorderColor=none;fontFamily=Comic Sans MS;strokeColor=#FFB570;align=center;" parent="1" vertex="1">
          <mxGeometry x="408" y="281" width="140" height="156" as="geometry" />
        </mxCell>
        <mxCell id="RfdrG1ktTRq8gSZfN96u-6" value="dictType *type" style="text;strokeColor=#FFB570;fillColor=none;align=center;verticalAlign=top;spacingLeft=4;spacingRight=4;overflow=hidden;rotatable=0;points=[[0,0.5],[1,0.5]];portConstraint=eastwest;rounded=0;labelBorderColor=none;fontFamily=Comic Sans MS;" parent="RfdrG1ktTRq8gSZfN96u-5" vertex="1">
          <mxGeometry y="26" width="140" height="26" as="geometry" />
        </mxCell>
        <mxCell id="RfdrG1ktTRq8gSZfN96u-7" value="void *privdata" style="text;strokeColor=#FFB570;fillColor=none;align=center;verticalAlign=top;spacingLeft=4;spacingRight=4;overflow=hidden;rotatable=0;points=[[0,0.5],[1,0.5]];portConstraint=eastwest;rounded=0;labelBorderColor=none;fontFamily=Comic Sans MS;" parent="RfdrG1ktTRq8gSZfN96u-5" vertex="1">
          <mxGeometry y="52" width="140" height="26" as="geometry" />
        </mxCell>
        <mxCell id="RfdrG1ktTRq8gSZfN96u-8" value=" dictht ht[2]" style="text;strokeColor=#FFB570;fillColor=none;align=center;verticalAlign=top;spacingLeft=4;spacingRight=4;overflow=hidden;rotatable=0;points=[[0,0.5],[1,0.5]];portConstraint=eastwest;rounded=0;labelBorderColor=none;fontFamily=Comic Sans MS;" parent="RfdrG1ktTRq8gSZfN96u-5" vertex="1">
          <mxGeometry y="78" width="140" height="26" as="geometry" />
        </mxCell>
        <mxCell id="RfdrG1ktTRq8gSZfN96u-9" value="int rehashidx" style="text;strokeColor=#FFB570;fillColor=none;align=center;verticalAlign=top;spacingLeft=4;spacingRight=4;overflow=hidden;rotatable=0;points=[[0,0.5],[1,0.5]];portConstraint=eastwest;rounded=0;labelBorderColor=none;fontFamily=Comic Sans MS;" parent="RfdrG1ktTRq8gSZfN96u-5" vertex="1">
          <mxGeometry y="104" width="140" height="26" as="geometry" />
        </mxCell>
        <mxCell id="RfdrG1ktTRq8gSZfN96u-10" value="int iterators" style="text;strokeColor=#FFB570;fillColor=none;align=center;verticalAlign=top;spacingLeft=4;spacingRight=4;overflow=hidden;rotatable=0;points=[[0,0.5],[1,0.5]];portConstraint=eastwest;rounded=1;labelBorderColor=none;fontFamily=Comic Sans MS;" parent="RfdrG1ktTRq8gSZfN96u-5" vertex="1">
          <mxGeometry y="130" width="140" height="26" as="geometry" />
        </mxCell>
        <mxCell id="RfdrG1ktTRq8gSZfN96u-11" value="dictht" style="swimlane;fontStyle=0;childLayout=stackLayout;horizontal=1;startSize=26;fillColor=none;horizontalStack=0;resizeParent=1;resizeParentMax=0;resizeLast=0;collapsible=1;marginBottom=0;rounded=0;labelBorderColor=none;fontFamily=Comic Sans MS;strokeColor=#FFB570;align=center;" parent="1" vertex="1">
          <mxGeometry x="617" y="534" width="140" height="130" as="geometry" />
        </mxCell>
        <mxCell id="RfdrG1ktTRq8gSZfN96u-12" value="dictEntry **table" style="text;strokeColor=#FFB570;fillColor=none;align=center;verticalAlign=top;spacingLeft=4;spacingRight=4;overflow=hidden;rotatable=0;points=[[0,0.5],[1,0.5]];portConstraint=eastwest;rounded=0;labelBorderColor=none;fontFamily=Comic Sans MS;" parent="RfdrG1ktTRq8gSZfN96u-11" vertex="1">
          <mxGeometry y="26" width="140" height="26" as="geometry" />
        </mxCell>
        <mxCell id="RfdrG1ktTRq8gSZfN96u-13" value="unsigned long size" style="text;strokeColor=#FFB570;fillColor=none;align=center;verticalAlign=top;spacingLeft=4;spacingRight=4;overflow=hidden;rotatable=0;points=[[0,0.5],[1,0.5]];portConstraint=eastwest;rounded=0;labelBorderColor=none;fontFamily=Comic Sans MS;" parent="RfdrG1ktTRq8gSZfN96u-11" vertex="1">
          <mxGeometry y="52" width="140" height="26" as="geometry" />
        </mxCell>
        <mxCell id="RfdrG1ktTRq8gSZfN96u-14" value="unsigned long sizemask" style="text;strokeColor=#FFB570;fillColor=none;align=center;verticalAlign=top;spacingLeft=4;spacingRight=4;overflow=hidden;rotatable=0;points=[[0,0.5],[1,0.5]];portConstraint=eastwest;rounded=0;labelBorderColor=none;fontFamily=Comic Sans MS;" parent="RfdrG1ktTRq8gSZfN96u-11" vertex="1">
          <mxGeometry y="78" width="140" height="26" as="geometry" />
        </mxCell>
        <mxCell id="RfdrG1ktTRq8gSZfN96u-15" value="unsigned long used" style="text;strokeColor=#FFB570;fillColor=none;align=center;verticalAlign=top;spacingLeft=4;spacingRight=4;overflow=hidden;rotatable=0;points=[[0,0.5],[1,0.5]];portConstraint=eastwest;rounded=0;labelBorderColor=none;fontFamily=Comic Sans MS;" parent="RfdrG1ktTRq8gSZfN96u-11" vertex="1">
          <mxGeometry y="104" width="140" height="26" as="geometry" />
        </mxCell>
        <mxCell id="RfdrG1ktTRq8gSZfN96u-18" value="dictht" style="swimlane;fontStyle=1;align=center;verticalAlign=top;childLayout=stackLayout;horizontal=1;startSize=26;horizontalStack=0;resizeParent=1;resizeParentMax=0;resizeLast=0;collapsible=1;marginBottom=0;rounded=0;labelBorderColor=none;fontFamily=Comic Sans MS;strokeColor=#FFB570;fillColor=default;" parent="1" vertex="1">
          <mxGeometry x="408" y="656" width="160" height="78" as="geometry" />
        </mxCell>
        <mxCell id="RfdrG1ktTRq8gSZfN96u-19" value="ht[0]" style="text;strokeColor=#FFB570;fillColor=none;align=center;verticalAlign=top;spacingLeft=4;spacingRight=4;overflow=hidden;rotatable=0;points=[[0,0.5],[1,0.5]];portConstraint=eastwest;rounded=0;labelBorderColor=none;fontFamily=Comic Sans MS;" parent="RfdrG1ktTRq8gSZfN96u-18" vertex="1">
          <mxGeometry y="26" width="160" height="26" as="geometry" />
        </mxCell>
        <mxCell id="RfdrG1ktTRq8gSZfN96u-21" value="ht[1] -&gt; NULL" style="text;strokeColor=#FFB570;fillColor=none;align=center;verticalAlign=top;spacingLeft=4;spacingRight=4;overflow=hidden;rotatable=0;points=[[0,0.5],[1,0.5]];portConstraint=eastwest;rounded=0;labelBorderColor=none;fontFamily=Comic Sans MS;" parent="RfdrG1ktTRq8gSZfN96u-18" vertex="1">
          <mxGeometry y="52" width="160" height="26" as="geometry" />
        </mxCell>
        <mxCell id="RfdrG1ktTRq8gSZfN96u-22" style="edgeStyle=orthogonalEdgeStyle;curved=1;orthogonalLoop=1;jettySize=auto;html=1;fontFamily=Comic Sans MS;fontSize=12;fontColor=default;exitX=1;exitY=0.5;exitDx=0;exitDy=0;align=center;strokeColor=#FFB570;" parent="1" source="RfdrG1ktTRq8gSZfN96u-8" target="RfdrG1ktTRq8gSZfN96u-18" edge="1">
          <mxGeometry relative="1" as="geometry" />
        </mxCell>
        <mxCell id="RfdrG1ktTRq8gSZfN96u-23" style="edgeStyle=orthogonalEdgeStyle;curved=1;orthogonalLoop=1;jettySize=auto;html=1;exitX=1;exitY=0.5;exitDx=0;exitDy=0;entryX=0.5;entryY=0;entryDx=0;entryDy=0;fontFamily=Comic Sans MS;fontSize=12;fontColor=default;align=center;strokeColor=#FFB570;" parent="1" source="RfdrG1ktTRq8gSZfN96u-19" target="RfdrG1ktTRq8gSZfN96u-11" edge="1">
          <mxGeometry relative="1" as="geometry" />
        </mxCell>
        <mxCell id="RfdrG1ktTRq8gSZfN96u-24" style="edgeStyle=orthogonalEdgeStyle;curved=1;orthogonalLoop=1;jettySize=auto;html=1;exitX=1;exitY=0.5;exitDx=0;exitDy=0;entryX=0.5;entryY=0;entryDx=0;entryDy=0;fontFamily=Comic Sans MS;fontSize=12;fontColor=default;align=center;strokeColor=#FFB570;" parent="1" source="fJqqmS50FYr8kvpDgYE6-43" target="RfdrG1ktTRq8gSZfN96u-5" edge="1">
          <mxGeometry relative="1" as="geometry" />
        </mxCell>
        <mxCell id="Eub6isoXANDsjV6QHxqc-1" value="dictEntry [3]" style="swimlane;fontStyle=0;childLayout=stackLayout;horizontal=1;startSize=26;fillColor=none;horizontalStack=0;resizeParent=1;resizeParentMax=0;resizeLast=0;collapsible=1;marginBottom=0;align=center;fontFamily=Comic Sans MS;strokeColor=#FFB570;" vertex="1" parent="1">
          <mxGeometry x="643" y="281" width="140" height="104" as="geometry" />
        </mxCell>
        <mxCell id="Eub6isoXANDsjV6QHxqc-2" value="table[0]" style="text;strokeColor=#FFB570;fillColor=none;align=center;verticalAlign=top;spacingLeft=4;spacingRight=4;overflow=hidden;rotatable=0;points=[[0,0.5],[1,0.5]];portConstraint=eastwest;fontFamily=Comic Sans MS;" vertex="1" parent="Eub6isoXANDsjV6QHxqc-1">
          <mxGeometry y="26" width="140" height="26" as="geometry" />
        </mxCell>
        <mxCell id="Eub6isoXANDsjV6QHxqc-3" value="table[1]" style="text;strokeColor=#FFB570;fillColor=none;align=center;verticalAlign=top;spacingLeft=4;spacingRight=4;overflow=hidden;rotatable=0;points=[[0,0.5],[1,0.5]];portConstraint=eastwest;fontFamily=Comic Sans MS;" vertex="1" parent="Eub6isoXANDsjV6QHxqc-1">
          <mxGeometry y="52" width="140" height="26" as="geometry" />
        </mxCell>
        <mxCell id="Eub6isoXANDsjV6QHxqc-4" value="table[2]" style="text;strokeColor=#FFB570;fillColor=none;align=center;verticalAlign=top;spacingLeft=4;spacingRight=4;overflow=hidden;rotatable=0;points=[[0,0.5],[1,0.5]];portConstraint=eastwest;fontFamily=Comic Sans MS;" vertex="1" parent="Eub6isoXANDsjV6QHxqc-1">
          <mxGeometry y="78" width="140" height="26" as="geometry" />
        </mxCell>
        <mxCell id="Eub6isoXANDsjV6QHxqc-5" style="edgeStyle=orthogonalEdgeStyle;orthogonalLoop=1;jettySize=auto;html=1;exitX=1;exitY=0.5;exitDx=0;exitDy=0;entryX=0.5;entryY=0;entryDx=0;entryDy=0;curved=1;fontFamily=Comic Sans MS;align=center;strokeColor=#FFB570;" edge="1" parent="1" source="RfdrG1ktTRq8gSZfN96u-12" target="Eub6isoXANDsjV6QHxqc-1">
          <mxGeometry relative="1" as="geometry" />
        </mxCell>
        <mxCell id="Eub6isoXANDsjV6QHxqc-6" value="dictEntry" style="swimlane;fontStyle=0;childLayout=stackLayout;horizontal=1;startSize=26;fillColor=none;horizontalStack=0;resizeParent=1;resizeParentMax=0;resizeLast=0;collapsible=1;marginBottom=0;strokeColor=#FFB570;fontFamily=Comic Sans MS;align=center;" vertex="1" parent="1">
          <mxGeometry x="877" y="121" width="140" height="160" as="geometry" />
        </mxCell>
        <mxCell id="Eub6isoXANDsjV6QHxqc-7" value="*key" style="text;strokeColor=#FFB570;fillColor=none;align=center;verticalAlign=top;spacingLeft=4;spacingRight=4;overflow=hidden;rotatable=0;points=[[0,0.5],[1,0.5]];portConstraint=eastwest;fontFamily=Comic Sans MS;" vertex="1" parent="Eub6isoXANDsjV6QHxqc-6">
          <mxGeometry y="26" width="140" height="26" as="geometry" />
        </mxCell>
        <mxCell id="Eub6isoXANDsjV6QHxqc-8" value="    union {&#xa;        void *val;&#xa;        uint64_t u64;&#xa;        int64_t s64;&#xa;    } v" style="text;strokeColor=#FFB570;fillColor=none;align=left;verticalAlign=top;spacingLeft=4;spacingRight=4;overflow=hidden;rotatable=0;points=[[0,0.5],[1,0.5]];portConstraint=eastwest;fontFamily=Comic Sans MS;" vertex="1" parent="Eub6isoXANDsjV6QHxqc-6">
          <mxGeometry y="52" width="140" height="82" as="geometry" />
        </mxCell>
        <mxCell id="Eub6isoXANDsjV6QHxqc-9" value="dictEntry *next" style="text;strokeColor=#FFB570;fillColor=none;align=center;verticalAlign=top;spacingLeft=4;spacingRight=4;overflow=hidden;rotatable=0;points=[[0,0.5],[1,0.5]];portConstraint=eastwest;fontFamily=Comic Sans MS;" vertex="1" parent="Eub6isoXANDsjV6QHxqc-6">
          <mxGeometry y="134" width="140" height="26" as="geometry" />
        </mxCell>
        <mxCell id="Eub6isoXANDsjV6QHxqc-10" value="redisDb[16]" style="swimlane;fontStyle=0;childLayout=stackLayout;horizontal=1;startSize=26;fillColor=none;horizontalStack=0;resizeParent=1;resizeParentMax=0;resizeLast=0;collapsible=1;marginBottom=0;fontFamily=Comic Sans MS;strokeColor=#FFB570;align=center;" vertex="1" parent="1">
          <mxGeometry x="204" y="281" width="140" height="104" as="geometry" />
        </mxCell>
        <mxCell id="Eub6isoXANDsjV6QHxqc-11" value="db[0]" style="text;strokeColor=#FFB570;fillColor=none;align=center;verticalAlign=top;spacingLeft=4;spacingRight=4;overflow=hidden;rotatable=0;points=[[0,0.5],[1,0.5]];portConstraint=eastwest;fontFamily=Comic Sans MS;" vertex="1" parent="Eub6isoXANDsjV6QHxqc-10">
          <mxGeometry y="26" width="140" height="26" as="geometry" />
        </mxCell>
        <mxCell id="Eub6isoXANDsjV6QHxqc-12" value="db[1]-db[14]" style="text;strokeColor=#FFB570;fillColor=none;align=center;verticalAlign=top;spacingLeft=4;spacingRight=4;overflow=hidden;rotatable=0;points=[[0,0.5],[1,0.5]];portConstraint=eastwest;fontFamily=Comic Sans MS;" vertex="1" parent="Eub6isoXANDsjV6QHxqc-10">
          <mxGeometry y="52" width="140" height="26" as="geometry" />
        </mxCell>
        <mxCell id="Eub6isoXANDsjV6QHxqc-13" value="db[15]" style="text;strokeColor=#FFB570;fillColor=none;align=center;verticalAlign=top;spacingLeft=4;spacingRight=4;overflow=hidden;rotatable=0;points=[[0,0.5],[1,0.5]];portConstraint=eastwest;fontFamily=Comic Sans MS;" vertex="1" parent="Eub6isoXANDsjV6QHxqc-10">
          <mxGeometry y="78" width="140" height="26" as="geometry" />
        </mxCell>
        <mxCell id="Eub6isoXANDsjV6QHxqc-14" style="edgeStyle=orthogonalEdgeStyle;curved=1;orthogonalLoop=1;jettySize=auto;html=1;exitX=1;exitY=0.5;exitDx=0;exitDy=0;entryX=0.5;entryY=0;entryDx=0;entryDy=0;fontFamily=Comic Sans MS;align=center;strokeColor=#FFB570;" edge="1" parent="1" source="Eub6isoXANDsjV6QHxqc-11" target="fJqqmS50FYr8kvpDgYE6-42">
          <mxGeometry relative="1" as="geometry" />
        </mxCell>
        <mxCell id="Eub6isoXANDsjV6QHxqc-15" value="dictEntry" style="swimlane;fontStyle=0;childLayout=stackLayout;horizontal=1;startSize=26;fillColor=none;horizontalStack=0;resizeParent=1;resizeParentMax=0;resizeLast=0;collapsible=1;marginBottom=0;strokeColor=#FFB570;fontFamily=Comic Sans MS;align=center;" vertex="1" parent="1">
          <mxGeometry x="1074" y="124" width="140" height="160" as="geometry" />
        </mxCell>
        <mxCell id="Eub6isoXANDsjV6QHxqc-16" value="*key" style="text;strokeColor=#FFB570;fillColor=none;align=center;verticalAlign=top;spacingLeft=4;spacingRight=4;overflow=hidden;rotatable=0;points=[[0,0.5],[1,0.5]];portConstraint=eastwest;fontFamily=Comic Sans MS;" vertex="1" parent="Eub6isoXANDsjV6QHxqc-15">
          <mxGeometry y="26" width="140" height="26" as="geometry" />
        </mxCell>
        <mxCell id="Eub6isoXANDsjV6QHxqc-17" value="    union {&#xa;        void *val;&#xa;        uint64_t u64;&#xa;        int64_t s64;&#xa;    } v" style="text;strokeColor=#FFB570;fillColor=none;align=left;verticalAlign=top;spacingLeft=4;spacingRight=4;overflow=hidden;rotatable=0;points=[[0,0.5],[1,0.5]];portConstraint=eastwest;fontFamily=Comic Sans MS;" vertex="1" parent="Eub6isoXANDsjV6QHxqc-15">
          <mxGeometry y="52" width="140" height="82" as="geometry" />
        </mxCell>
        <mxCell id="Eub6isoXANDsjV6QHxqc-18" value="dictEntry *next" style="text;strokeColor=#FFB570;fillColor=none;align=center;verticalAlign=top;spacingLeft=4;spacingRight=4;overflow=hidden;rotatable=0;points=[[0,0.5],[1,0.5]];portConstraint=eastwest;fontFamily=Comic Sans MS;" vertex="1" parent="Eub6isoXANDsjV6QHxqc-15">
          <mxGeometry y="134" width="140" height="26" as="geometry" />
        </mxCell>
        <mxCell id="Eub6isoXANDsjV6QHxqc-19" style="edgeStyle=orthogonalEdgeStyle;curved=1;orthogonalLoop=1;jettySize=auto;html=1;exitX=1;exitY=0.5;exitDx=0;exitDy=0;entryX=0.5;entryY=0;entryDx=0;entryDy=0;fontFamily=Comic Sans MS;strokeColor=#FFB570;" edge="1" parent="1" source="Eub6isoXANDsjV6QHxqc-9" target="Eub6isoXANDsjV6QHxqc-15">
          <mxGeometry relative="1" as="geometry" />
        </mxCell>
        <mxCell id="Eub6isoXANDsjV6QHxqc-20" style="edgeStyle=orthogonalEdgeStyle;curved=1;orthogonalLoop=1;jettySize=auto;html=1;exitX=1;exitY=0.5;exitDx=0;exitDy=0;entryX=0.5;entryY=0;entryDx=0;entryDy=0;fontFamily=Comic Sans MS;strokeColor=#FFB570;" edge="1" parent="1" source="Eub6isoXANDsjV6QHxqc-2" target="Eub6isoXANDsjV6QHxqc-6">
          <mxGeometry relative="1" as="geometry" />
        </mxCell>
        <mxCell id="Eub6isoXANDsjV6QHxqc-21" value="dictEntry" style="swimlane;fontStyle=0;childLayout=stackLayout;horizontal=1;startSize=26;fillColor=none;horizontalStack=0;resizeParent=1;resizeParentMax=0;resizeLast=0;collapsible=1;marginBottom=0;strokeColor=#FFB570;fontFamily=Comic Sans MS;align=center;" vertex="1" parent="1">
          <mxGeometry x="873" y="415" width="140" height="160" as="geometry" />
        </mxCell>
        <mxCell id="Eub6isoXANDsjV6QHxqc-22" value="*key" style="text;strokeColor=#FFB570;fillColor=none;align=center;verticalAlign=top;spacingLeft=4;spacingRight=4;overflow=hidden;rotatable=0;points=[[0,0.5],[1,0.5]];portConstraint=eastwest;fontFamily=Comic Sans MS;" vertex="1" parent="Eub6isoXANDsjV6QHxqc-21">
          <mxGeometry y="26" width="140" height="26" as="geometry" />
        </mxCell>
        <mxCell id="Eub6isoXANDsjV6QHxqc-23" value="    union {&#xa;        void *val;&#xa;        uint64_t u64;&#xa;        int64_t s64;&#xa;    } v" style="text;strokeColor=#FFB570;fillColor=none;align=left;verticalAlign=top;spacingLeft=4;spacingRight=4;overflow=hidden;rotatable=0;points=[[0,0.5],[1,0.5]];portConstraint=eastwest;fontFamily=Comic Sans MS;" vertex="1" parent="Eub6isoXANDsjV6QHxqc-21">
          <mxGeometry y="52" width="140" height="82" as="geometry" />
        </mxCell>
        <mxCell id="Eub6isoXANDsjV6QHxqc-24" value="dictEntry *next" style="text;strokeColor=#FFB570;fillColor=none;align=center;verticalAlign=top;spacingLeft=4;spacingRight=4;overflow=hidden;rotatable=0;points=[[0,0.5],[1,0.5]];portConstraint=eastwest;fontFamily=Comic Sans MS;" vertex="1" parent="Eub6isoXANDsjV6QHxqc-21">
          <mxGeometry y="134" width="140" height="26" as="geometry" />
        </mxCell>
        <mxCell id="Eub6isoXANDsjV6QHxqc-27" style="edgeStyle=orthogonalEdgeStyle;curved=1;orthogonalLoop=1;jettySize=auto;html=1;exitX=1;exitY=0.5;exitDx=0;exitDy=0;entryX=0.5;entryY=0;entryDx=0;entryDy=0;fontFamily=Comic Sans MS;strokeColor=#FFB570;" edge="1" parent="1" source="Eub6isoXANDsjV6QHxqc-3" target="Eub6isoXANDsjV6QHxqc-21">
          <mxGeometry relative="1" as="geometry" />
        </mxCell>
        <mxCell id="Eub6isoXANDsjV6QHxqc-28" value="Redis核心数据结构" style="text;strokeColor=none;fillColor=none;html=1;fontSize=29;fontStyle=1;verticalAlign=middle;align=center;fontFamily=Comic Sans MS;" vertex="1" parent="1">
          <mxGeometry x="78" y="53" width="295" height="67" as="geometry" />
        </mxCell>
        <mxCell id="Eub6isoXANDsjV6QHxqc-33" value="sdshdr" style="swimlane;fontStyle=0;childLayout=stackLayout;horizontal=1;startSize=26;fillColor=none;horizontalStack=0;resizeParent=1;resizeParentMax=0;resizeLast=0;collapsible=1;marginBottom=0;fontFamily=Comic Sans MS;fontSize=12;strokeColor=#FFB570;align=center;" vertex="1" parent="1">
          <mxGeometry x="1097" y="366" width="140" height="104" as="geometry" />
        </mxCell>
        <mxCell id="Eub6isoXANDsjV6QHxqc-34" value="int len" style="text;strokeColor=#FFB570;fillColor=none;align=center;verticalAlign=top;spacingLeft=4;spacingRight=4;overflow=hidden;rotatable=0;points=[[0,0.5],[1,0.5]];portConstraint=eastwest;fontFamily=Comic Sans MS;fontSize=12;" vertex="1" parent="Eub6isoXANDsjV6QHxqc-33">
          <mxGeometry y="26" width="140" height="26" as="geometry" />
        </mxCell>
        <mxCell id="Eub6isoXANDsjV6QHxqc-35" value="int free" style="text;strokeColor=#FFB570;fillColor=none;align=center;verticalAlign=top;spacingLeft=4;spacingRight=4;overflow=hidden;rotatable=0;points=[[0,0.5],[1,0.5]];portConstraint=eastwest;fontFamily=Comic Sans MS;fontSize=12;" vertex="1" parent="Eub6isoXANDsjV6QHxqc-33">
          <mxGeometry y="52" width="140" height="26" as="geometry" />
        </mxCell>
        <mxCell id="Eub6isoXANDsjV6QHxqc-36" value="char buf[]" style="text;strokeColor=#FFB570;fillColor=none;align=center;verticalAlign=top;spacingLeft=4;spacingRight=4;overflow=hidden;rotatable=0;points=[[0,0.5],[1,0.5]];portConstraint=eastwest;fontFamily=Comic Sans MS;fontSize=12;" vertex="1" parent="Eub6isoXANDsjV6QHxqc-33">
          <mxGeometry y="78" width="140" height="26" as="geometry" />
        </mxCell>
        <mxCell id="Eub6isoXANDsjV6QHxqc-37" style="edgeStyle=orthogonalEdgeStyle;curved=1;orthogonalLoop=1;jettySize=auto;html=1;exitX=1;exitY=0.5;exitDx=0;exitDy=0;entryX=0.5;entryY=0;entryDx=0;entryDy=0;fontFamily=Comic Sans MS;fontSize=12;strokeColor=#FFB570;" edge="1" parent="1" source="Eub6isoXANDsjV6QHxqc-22" target="Eub6isoXANDsjV6QHxqc-33">
          <mxGeometry relative="1" as="geometry" />
        </mxCell>
      </root>
    </mxGraphModel>
  </diagram>
</mxfile>
